<svg width="176" height="55" viewBox="0 0 176 55" fill="none" xmlns="http://www.w3.org/2000/svg">
<path d="M24.7071 42.1981C24.7071 43.9769 24.4452 45.6101 23.9227 47.1003C23.3989 48.5906 22.6285 49.8596 21.6089 50.9044C20.5892 51.9507 19.3595 52.7743 17.9224 53.3751C16.484 53.976 14.8761 54.2771 13.0987 54.2771C11.2681 54.2771 9.55508 53.976 7.96117 53.3751C6.36585 52.7743 4.98063 51.9241 3.80411 50.826C2.62758 49.7279 1.69896 48.4085 1.01966 46.865C0.338952 45.3229 0 43.61 0 41.7275V12.5496C0 10.6672 0.338952 8.95562 1.01966 7.41213C1.69896 5.87003 2.62758 4.54924 3.80411 3.45115C4.98063 2.35306 6.36585 1.50427 7.96117 0.902005C9.55508 0.301135 11.2681 0 13.0987 0C14.8761 0 16.484 0.301135 17.9224 0.902005C19.3595 1.50427 20.5892 2.32784 21.6089 3.37271C22.6285 4.41898 23.3989 5.68655 23.9227 7.17682C24.4452 8.66709 24.7071 10.3016 24.7071 12.079V20.001H15.9223V11.9221C15.9223 11.1378 15.6996 10.4851 15.2556 9.96127C14.8102 9.43883 14.0917 9.17692 13.0987 9.17692C12.1575 9.17692 11.4515 9.43883 10.9809 9.96127C10.5103 10.4851 10.275 11.1378 10.275 11.9221V42.355C10.275 43.1394 10.5103 43.7934 10.9809 44.3159C11.4515 44.8397 12.1575 45.1002 13.0987 45.1002C14.0917 45.1002 14.8102 44.8397 15.2556 44.3159C15.6996 43.7934 15.9223 43.1394 15.9223 42.355V34.1977H24.7071V42.1981Z" fill="#FCFCFD"/>
<path d="M43.0596 53.2575C42.6408 53.2575 42.2878 52.997 42.0007 52.4731C41.7122 51.9507 41.4643 51.284 41.2556 50.473C41.0455 49.6635 40.8886 48.7867 40.785 47.8455C40.6799 46.9042 40.6281 46.0162 40.6281 45.1787V34.7468C40.6281 34.0675 40.4572 33.44 40.1183 32.8643C39.7779 32.2901 39.2415 32.0016 38.5103 32.0016H36.1573V53.2575H26.0391V1.01965H40.0006C41.2556 1.01965 42.4839 1.21574 43.6871 1.60792C44.8888 2.00009 45.9617 2.61497 46.9029 3.45114C47.8441 4.28872 48.6019 5.34759 49.1775 6.62777C49.7518 7.90934 50.0403 9.41222 50.0403 11.1378V21.5697C50.0403 22.8779 49.6733 24.0936 48.9422 25.2169C48.2097 26.3416 47.19 27.2702 45.8832 28.0014C47.19 28.7339 48.2363 29.6625 49.0206 30.7858C49.805 31.9105 50.1972 33.1263 50.1972 34.433V44.5512C50.1972 46.2249 50.3274 47.7418 50.5893 49.1004C50.8499 50.4604 51.1636 51.7672 51.5306 53.0222V53.2575H43.0596ZM40.3928 11.8437C40.3928 10.9557 40.2485 10.3408 39.9614 10.0005C39.6729 9.66153 39.2415 9.49065 38.6672 9.49065H36.1573V24.2365H38.6672C39.2415 24.2365 39.6729 24.067 39.9614 23.7266C40.2485 23.3877 40.3928 22.7728 40.3928 21.8834V11.8437Z" fill="#FCFCFD"/>
<path d="M76.5499 42.5903C76.5499 44.264 76.2487 45.8061 75.6479 47.218C75.0456 48.6298 74.2094 49.8596 73.1379 50.9044C72.0651 51.9507 70.7849 52.7743 69.2946 53.3751C67.8044 53.976 66.1698 54.2771 64.3924 54.2771C62.6668 54.2771 61.0449 53.976 59.5294 53.3751C58.0126 52.7743 56.6918 51.9507 55.5685 50.9044C54.4438 49.8596 53.5684 48.6298 52.9409 47.218C52.3134 45.8061 51.9997 44.264 51.9997 42.5903V1.01965H62.1178V42.8256C62.1178 43.5581 62.3391 44.1198 62.7845 44.512C63.2285 44.9041 63.7649 45.1002 64.3924 45.1002C65.1236 45.1002 65.7118 44.9041 66.1572 44.512C66.6012 44.1198 66.8239 43.5581 66.8239 42.8256V1.01965H76.5499V42.5903Z" fill="#FCFCFD"/>
<path d="M102.197 41.1001C102.197 43.1394 101.883 44.9826 101.256 46.6298C100.628 48.2769 99.7653 49.6635 98.6672 50.7868C97.5691 51.9115 96.2609 52.7743 94.7454 53.3752C93.2285 53.9761 91.608 54.2772 89.8824 54.2772C85.9607 54.2772 82.9143 53.2057 80.7447 51.0614C78.5738 48.9184 77.4897 45.8846 77.4897 41.9629V37.4136H86.196V42.2766C86.196 43.3229 86.4705 44.1731 87.0195 44.8258C87.5686 45.4799 88.3655 45.8062 89.4118 45.8062C91.4511 45.8062 92.4708 44.6563 92.4708 42.355C92.4708 40.2121 91.9077 38.2512 90.7844 36.4724C89.6597 34.695 88.2087 32.7075 86.4313 30.5113C85.4368 29.4132 84.4312 28.2115 83.4115 26.9033C82.3919 25.5965 81.4633 24.2113 80.6271 22.7463C79.7895 21.2826 79.0976 19.7531 78.5485 18.1578C77.9995 16.5639 77.725 14.956 77.725 13.334C77.725 11.5566 77.9855 9.87028 78.5093 8.27497C79.0318 6.68105 79.8161 5.26922 80.8624 4.03947C81.9073 2.81112 83.2154 1.84328 84.7841 1.13737C86.3528 0.43145 88.2087 0.0784912 90.353 0.0784912C93.751 0.0784912 96.4836 1.19059 98.5495 3.41199C100.614 5.63478 101.648 8.60271 101.648 12.3144V16.8636H92.9414V11.6869C92.9414 10.7457 92.6921 10.0145 92.1963 9.49071C91.699 8.96828 91.0842 8.70636 90.353 8.70636C89.6205 8.70636 88.9538 8.95567 88.3529 9.45149C87.7507 9.94872 87.4509 10.7205 87.4509 11.7653C87.4509 13.0203 87.5938 14.1324 87.8823 15.0988C88.1695 16.0667 88.5882 16.9953 89.1373 17.8833C89.6863 18.7727 90.339 19.6747 91.0982 20.5893C91.8559 21.5053 92.6795 22.5642 93.5689 23.7659C94.6137 25.0209 95.66 26.3151 96.7063 27.6485C97.7512 28.9819 98.6798 30.3685 99.4907 31.8055C100.3 33.244 100.954 34.7342 101.452 36.2763C101.947 37.8198 102.197 39.4277 102.197 41.1001Z" fill="#FCFCFD"/>
<path d="M117.725 53.2575L117.02 44.8649H111.058L110.196 53.2575H101.097L108.705 1.01965H120.314L127.844 53.2575H117.725ZM114.431 16.3929L112.157 36.7077H116.157L114.431 16.3929Z" fill="#FCFCFD"/>
<path d="M152.941 41.7275C152.941 43.715 152.64 45.428 152.039 46.865C151.437 48.3035 150.601 49.4926 149.53 50.4338C148.457 51.375 147.189 52.081 145.725 52.5516C144.26 53.0222 142.666 53.2575 140.941 53.2575H127.921V1.01965H140.941C142.666 1.01965 144.26 1.28157 145.725 1.80401C147.189 2.32784 148.457 3.11219 149.53 4.15706C150.601 5.20333 151.437 6.4849 152.039 8.00038C152.64 9.51727 152.941 11.2428 152.941 13.1771V41.7275ZM142.902 13.0987C142.902 10.8507 141.961 9.72596 140.078 9.72596H138.039V44.5512H140.078C141.961 44.5512 142.902 43.4531 142.902 41.2569V13.0987Z" fill="#FCFCFD"/>
<path d="M154.744 53.2575V1.01965H176V9.88283H164.784V22.354H172.157V30.5113H164.784V44.0806H176V53.2575H154.744Z" fill="#FCFCFD"/>
<path d="M46.8524 19.2452H112.447C112.836 19.2452 113.21 19.4007 113.485 19.6766C113.76 19.9512 113.916 20.3251 113.916 20.7145V33.2389C113.916 33.6283 113.76 34.0023 113.485 34.2768C113.21 34.5527 112.836 34.7068 112.447 34.7068H46.8524C46.0415 34.7068 45.3846 34.0499 45.3846 33.2389V20.7145C45.3846 19.9035 46.0415 19.2452 46.8524 19.2452Z" fill="#29B554"/>
<path d="M59.5809 25.2379C59.5809 25.3317 59.5333 25.378 59.4409 25.378H58.9535C58.8596 25.378 58.8134 25.3317 58.8134 25.2379V24.7617C58.805 24.5684 58.735 24.4031 58.6005 24.2687C58.466 24.1342 58.3008 24.067 58.1075 24.067H55.8553C55.6606 24.067 55.4939 24.137 55.3566 24.2743C55.218 24.4129 55.1493 24.5796 55.1493 24.7729V28.7507C55.1493 28.9454 55.218 29.112 55.3566 29.2493C55.4939 29.388 55.6606 29.4566 55.8553 29.4566H58.1075C58.3008 29.4566 58.466 29.3922 58.6005 29.2605C58.735 29.1303 58.805 28.9678 58.8134 28.7731V28.2857C58.8134 28.2521 58.826 28.2212 58.8526 28.1904C58.8778 28.161 58.9114 28.1456 58.9535 28.1456H59.4409C59.4815 28.1456 59.5151 28.161 59.5417 28.1904C59.5669 28.2212 59.5809 28.2521 59.5809 28.2857V28.7731C59.5809 28.9748 59.5389 29.1639 59.4577 29.3389C59.3792 29.5112 59.2728 29.6639 59.1383 29.7984C59.0067 29.93 58.8526 30.0337 58.6733 30.1121C58.4968 30.1877 58.3092 30.2241 58.1075 30.2241H55.8553C55.6536 30.2241 55.4631 30.1877 55.2838 30.1121C55.1073 30.0337 54.9533 29.93 54.8188 29.7984C54.6871 29.6639 54.5835 29.507 54.5051 29.3277C54.4294 29.1457 54.393 28.9524 54.393 28.7507V24.7729C54.393 24.5712 54.4294 24.3807 54.5051 24.2014C54.5835 24.0222 54.6871 23.8653 54.8188 23.7308C54.9533 23.5964 55.1073 23.4927 55.2838 23.4171C55.4631 23.3387 55.6536 23.2994 55.8553 23.2994H58.1075C58.3092 23.2994 58.4968 23.3387 58.6733 23.4171C58.8526 23.4927 59.0067 23.5964 59.1383 23.7308C59.2728 23.8625 59.3792 24.0166 59.4577 24.1958C59.5389 24.3723 59.5809 24.56 59.5809 24.7617V25.2379Z" fill="white"/>
<path d="M70.9706 30.2241C70.769 30.2241 70.5785 30.1877 70.3992 30.1121C70.2227 30.0337 70.0686 29.93 69.9342 29.7984C69.8025 29.6639 69.6989 29.507 69.6204 29.3277C69.5448 29.1457 69.5084 28.9524 69.5084 28.7507V24.7729C69.5084 24.5712 69.5448 24.3807 69.6204 24.2014C69.6989 24.0222 69.8025 23.8653 69.9342 23.7308C70.0686 23.5964 70.2227 23.4927 70.3992 23.4171C70.5785 23.3387 70.769 23.2994 70.9706 23.2994H73.2229C73.4245 23.2994 73.6122 23.3387 73.7887 23.4171C73.968 23.4927 74.1249 23.5964 74.2593 23.7308C74.3966 23.8653 74.503 24.0222 74.5787 24.2014C74.6571 24.3807 74.6963 24.5712 74.6963 24.7729V28.7507C74.6963 28.9524 74.6571 29.1457 74.5787 29.3277C74.503 29.507 74.3966 29.6639 74.2593 29.7984C74.1249 29.93 73.968 30.0337 73.7887 30.1121C73.6122 30.1877 73.4245 30.2241 73.2229 30.2241H70.9706ZM70.9706 24.067C70.776 24.067 70.6093 24.137 70.472 24.2743C70.3334 24.4129 70.2647 24.5796 70.2647 24.7729V28.7507C70.2647 28.9454 70.3334 29.112 70.472 29.2493C70.6093 29.388 70.776 29.4566 70.9706 29.4566H73.2229C73.4161 29.4566 73.5828 29.388 73.7215 29.2493C73.8587 29.112 73.9288 28.9454 73.9288 28.7507V24.7729C73.9288 24.5796 73.8587 24.4129 73.7215 24.2743C73.5828 24.137 73.4161 24.067 73.2229 24.067H70.9706Z" fill="white"/>
<path d="M84.6125 30.0841V23.4395C84.6125 23.4059 84.6265 23.3751 84.6573 23.3443C84.6867 23.3148 84.7189 23.2994 84.7525 23.2994H88.3381C88.5398 23.2994 88.7275 23.3387 88.904 23.4171C89.0833 23.4927 89.2401 23.5964 89.3746 23.7308C89.5119 23.8653 89.6183 24.0222 89.6939 24.2014C89.7724 24.3807 89.8116 24.5712 89.8116 24.7729V28.7507C89.8116 28.9524 89.7724 29.1457 89.6939 29.3277C89.6183 29.507 89.5119 29.6639 89.3746 29.7984C89.2401 29.93 89.0833 30.0337 88.904 30.1121C88.7275 30.1877 88.5398 30.2241 88.3381 30.2241H84.7525C84.7189 30.2241 84.6867 30.2115 84.6573 30.1849C84.6265 30.1597 84.6125 30.1261 84.6125 30.0841ZM85.38 29.4566H88.3381C88.5314 29.4566 88.6981 29.388 88.8368 29.2493C88.974 29.112 89.044 28.9454 89.044 28.7507V24.7729C89.044 24.5796 88.974 24.4129 88.8368 24.2743C88.6981 24.137 88.5314 24.067 88.3381 24.067H85.38V29.4566Z" fill="white"/>
<path d="M99.8904 30.0841V23.4395C99.8904 23.3471 99.9366 23.2994 100.03 23.2994H104.737C104.829 23.2994 104.877 23.3471 104.877 23.4395V23.9269C104.877 24.0208 104.829 24.067 104.737 24.067H100.647V26.3752H104.188C104.221 26.3752 104.252 26.392 104.283 26.4256C104.316 26.4565 104.333 26.4873 104.333 26.5209V27.0027C104.333 27.0447 104.316 27.0783 104.283 27.1035C104.252 27.1302 104.221 27.1428 104.188 27.1428H100.647V29.4566H104.737C104.777 29.4566 104.811 29.472 104.837 29.5014C104.863 29.5322 104.877 29.563 104.877 29.5967V30.0841C104.877 30.1779 104.829 30.2241 104.737 30.2241H100.03C99.9366 30.2241 99.8904 30.1779 99.8904 30.0841Z" fill="white"/>
<path d="M111.921 19.0029H132.198C133.006 19.0029 133.662 19.6584 133.662 20.4666V32.949C133.662 33.7585 133.006 34.414 132.198 34.414H111.921C111.112 34.414 110.456 33.7585 110.456 32.949V20.4666C110.456 19.6584 111.112 19.0029 111.921 19.0029Z" fill="#29B554"/>
<path d="M118.159 22.978C118.361 22.978 118.551 23.0172 118.731 23.0957C118.91 23.1741 119.067 23.2806 119.201 23.415C119.339 23.5495 119.445 23.7064 119.521 23.8856C119.599 24.0649 119.638 24.2554 119.638 24.4571V25.3591C119.638 25.6994 119.533 26.0006 119.325 26.2611L119.173 26.4572L119.325 26.6477C119.533 26.9166 119.638 27.2177 119.638 27.5497V28.4517C119.638 28.6534 119.599 28.8467 119.521 29.0287C119.445 29.2122 119.339 29.3691 119.201 29.4994C119.067 29.631 118.91 29.7347 118.731 29.8131C118.551 29.8915 118.361 29.9307 118.159 29.9307H115.901C115.703 29.9307 115.52 29.8957 115.352 29.8243C115.184 29.7543 115.033 29.659 114.899 29.5386C114.767 29.4153 114.659 29.2724 114.574 29.1072C114.491 28.9391 114.442 28.7626 114.428 28.5749V27.9867C114.428 27.9531 114.441 27.9222 114.467 27.8914C114.497 27.8578 114.532 27.841 114.574 27.841H115.05C115.09 27.841 115.124 27.8578 115.151 27.8914C115.176 27.9222 115.19 27.9531 115.19 27.9867V28.4741C115.197 28.6688 115.268 28.8327 115.403 28.9671C115.537 29.0988 115.703 29.1632 115.901 29.1632H118.159C118.357 29.1632 118.525 29.0946 118.663 28.9559C118.801 28.8144 118.871 28.6464 118.871 28.4517V27.5497C118.871 27.3522 118.801 27.1841 118.663 27.0455C118.525 26.9082 118.357 26.8382 118.159 26.8382H115.952C115.918 26.8382 115.885 26.8256 115.851 26.7989C115.82 26.7737 115.806 26.7401 115.806 26.6981V26.2107C115.806 26.1771 115.82 26.1462 115.851 26.1154C115.885 26.086 115.918 26.0706 115.952 26.0706H118.159C118.357 26.0706 118.525 26.002 118.663 25.8633C118.801 25.7261 118.871 25.558 118.871 25.3591V24.4571C118.871 24.2638 118.801 24.0971 118.663 23.9585C118.525 23.8212 118.357 23.7512 118.159 23.7512H115.901C115.703 23.7512 115.537 23.8184 115.403 23.9529C115.268 24.0873 115.197 24.2526 115.19 24.4459V24.9221C115.19 25.0201 115.142 25.0678 115.05 25.0678H114.574C114.476 25.0678 114.428 25.0201 114.428 24.9221V24.345C114.442 24.1588 114.491 23.9837 114.574 23.8184C114.659 23.6503 114.767 23.5047 114.899 23.3814C115.033 23.2554 115.184 23.1559 115.352 23.0845C115.52 23.0144 115.703 22.978 115.901 22.978H118.159Z" fill="#FF0000"/>
<path d="M121.687 29.7458V28.6421C121.687 28.5497 121.733 28.5021 121.827 28.5021H122.315C122.348 28.5021 122.379 28.5161 122.41 28.5413C122.439 28.5679 122.455 28.6015 122.455 28.6421V29.7458C122.455 29.7879 122.439 29.8229 122.41 29.8523C122.379 29.8789 122.348 29.8915 122.315 29.8915H121.827C121.733 29.8915 121.687 29.8439 121.687 29.7458Z" fill="#FF0000"/>
<path d="M126.712 27.0118V25.9081C126.712 25.8115 126.759 25.7625 126.852 25.7625H127.34C127.373 25.7625 127.404 25.7779 127.435 25.8073C127.464 25.8339 127.48 25.8675 127.48 25.9081V27.0118C127.48 27.0539 127.464 27.0875 127.435 27.1127C127.404 27.1393 127.373 27.1519 127.34 27.1519H126.852C126.759 27.1519 126.712 27.1057 126.712 27.0118ZM125.962 29.9307C125.756 29.9307 125.564 29.8915 125.385 29.8131C125.208 29.7347 125.051 29.631 124.914 29.4994C124.779 29.3691 124.673 29.2122 124.595 29.0287C124.519 28.8467 124.483 28.6534 124.483 28.4517V24.4571C124.483 24.2554 124.519 24.0649 124.595 23.8856C124.673 23.7064 124.779 23.5495 124.914 23.415C125.051 23.2806 125.208 23.1741 125.385 23.0957C125.564 23.0172 125.756 22.978 125.962 22.978H128.219C128.421 22.978 128.612 23.0172 128.791 23.0957C128.97 23.1741 129.127 23.2806 129.261 23.415C129.399 23.5495 129.505 23.7064 129.581 23.8856C129.659 24.0649 129.698 24.2554 129.698 24.4571V28.4517C129.698 28.6534 129.659 28.8467 129.581 29.0287C129.505 29.2122 129.399 29.3691 129.261 29.4994C129.127 29.631 128.97 29.7347 128.791 29.8131C128.612 29.8915 128.421 29.9307 128.219 29.9307H125.962ZM125.962 23.7512C125.763 23.7512 125.595 23.8212 125.457 23.9585C125.319 24.0971 125.25 24.2638 125.25 24.4571V28.4517C125.25 28.6464 125.319 28.8144 125.457 28.9559C125.595 29.0946 125.763 29.1632 125.962 29.1632H128.219C128.417 29.1632 128.585 29.0946 128.724 28.9559C128.861 28.8144 128.931 28.6464 128.931 28.4517V24.4571C128.931 24.2638 128.861 24.0971 128.724 23.9585C128.585 23.8212 128.417 23.7512 128.219 23.7512H125.962Z" fill="#FF0000"/>
</svg>
