<svg width="254" height="123" viewBox="0 0 254 123" fill="none" xmlns="http://www.w3.org/2000/svg">
<path d="M92.2812 56.375C89.2969 56.375 86.8906 55.4453 85.0625 53.5859C83.25 51.7266 82.3438 49.125 82.3438 45.7812V26.75C82.3438 22.75 83.1328 19.6875 84.7109 17.5625C86.3047 15.4375 88.8906 14.375 92.4688 14.375C94.4219 14.375 96.1562 14.7344 97.6719 15.4531C99.2031 16.1719 100.406 17.25 101.281 18.6875C102.156 20.1094 102.594 21.9062 102.594 24.0781V31.2031H94.3906V25.1094C94.3906 23.875 94.2344 23.0469 93.9219 22.625C93.6094 22.1875 93.125 21.9688 92.4688 21.9688C91.7031 21.9688 91.1875 22.25 90.9219 22.8125C90.6562 23.3594 90.5234 24.0938 90.5234 25.0156V45.6641C90.5234 46.8047 90.6875 47.6094 91.0156 48.0781C91.3594 48.5469 91.8438 48.7812 92.4688 48.7812C93.1719 48.7812 93.6641 48.4922 93.9453 47.9141C94.2422 47.3359 94.3906 46.5859 94.3906 45.6641V38.2344H102.688V46.0391C102.688 49.6641 101.773 52.2969 99.9453 53.9375C98.1172 55.5625 95.5625 56.375 92.2812 56.375ZM108.992 56V22.6719H104.094V14.75H122.141V22.6719H117.242V56H108.992ZM124.438 56V14.75H137.094C139.203 14.75 140.797 15.2344 141.875 16.2031C142.953 17.1562 143.672 18.5 144.031 20.2344C144.406 21.9531 144.594 23.9766 144.594 26.3047C144.594 28.5547 144.305 30.3516 143.727 31.6953C143.164 33.0391 142.094 33.9688 140.516 34.4844C141.812 34.75 142.719 35.3984 143.234 36.4297C143.766 37.4453 144.031 38.7656 144.031 40.3906V56H135.898V39.8516C135.898 38.6484 135.648 37.9062 135.148 37.625C134.664 37.3281 133.875 37.1797 132.781 37.1797V56H124.438ZM132.828 30.0312H134.82C135.961 30.0312 136.531 28.7891 136.531 26.3047C136.531 24.6953 136.406 23.6406 136.156 23.1406C135.906 22.6406 135.438 22.3906 134.75 22.3906H132.828V30.0312ZM162.547 48.9453V44.0703H157.672V38.6328H162.547V33.7578H167.984V38.6328H172.859V44.0703H167.984V48.9453H162.547ZM190.109 56L185.68 14.75H193.742L196.016 40.7891L198.336 14.75H206.023L208.227 40.7891L210.43 14.75H218.586L214.086 56H204.195L202.133 36.1484L200.164 56H190.109ZM220.672 56V14.75H228.641V56H220.672ZM231.922 56V14.75H240.406L244.203 34.5078V14.75H252.172V56H244.109L239.984 35.375V56H231.922Z" fill="#525252"/>
<path d="M56.8906 107.375C53.125 107.375 50.4062 106.438 48.7344 104.562C47.0781 102.688 46.25 99.7031 46.25 95.6094V91.5781H54.4062V96.7344C54.4062 97.6875 54.5469 98.4375 54.8281 98.9844C55.125 99.5156 55.6328 99.7812 56.3516 99.7812C57.1016 99.7812 57.6172 99.5625 57.8984 99.125C58.1953 98.6875 58.3438 97.9688 58.3438 96.9688C58.3438 95.7031 58.2188 94.6484 57.9688 93.8047C57.7188 92.9453 57.2812 92.1328 56.6562 91.3672C56.0469 90.5859 55.1953 89.6797 54.1016 88.6484L50.3984 85.1328C47.6328 82.5234 46.25 79.5391 46.25 76.1797C46.25 72.6641 47.0625 69.9844 48.6875 68.1406C50.3281 66.2969 52.6953 65.375 55.7891 65.375C59.5703 65.375 62.25 66.3828 63.8281 68.3984C65.4219 70.4141 66.2188 73.4766 66.2188 77.5859H57.8281V74.75C57.8281 74.1875 57.6641 73.75 57.3359 73.4375C57.0234 73.125 56.5938 72.9688 56.0469 72.9688C55.3906 72.9688 54.9062 73.1562 54.5938 73.5312C54.2969 73.8906 54.1484 74.3594 54.1484 74.9375C54.1484 75.5156 54.3047 76.1406 54.6172 76.8125C54.9297 77.4844 55.5469 78.2578 56.4688 79.1328L61.2266 83.7031C62.1797 84.6094 63.0547 85.5703 63.8516 86.5859C64.6484 87.5859 65.2891 88.7578 65.7734 90.1016C66.2578 91.4297 66.5 93.0547 66.5 94.9766C66.5 98.8516 65.7812 101.891 64.3438 104.094C62.9219 106.281 60.4375 107.375 56.8906 107.375ZM69.2656 107V65.75H77.4688V80.4922H81.3594V65.75H89.5625V107H81.3594V88.2969H77.4688V107H69.2656ZM103.062 107.375C99.7656 107.375 97.2422 106.383 95.4922 104.398C93.7578 102.398 92.8906 99.5156 92.8906 95.75V76.1562C92.8906 72.625 93.75 69.9453 95.4688 68.1172C97.2031 66.2891 99.7344 65.375 103.062 65.375C106.391 65.375 108.914 66.2891 110.633 68.1172C112.367 69.9453 113.234 72.625 113.234 76.1562V95.75C113.234 99.5156 112.359 102.398 110.609 104.398C108.875 106.383 106.359 107.375 103.062 107.375ZM103.133 99.7812C104.383 99.7812 105.008 98.5703 105.008 96.1484V76.0156C105.008 73.9844 104.398 72.9688 103.18 72.9688C101.805 72.9688 101.117 74.0078 101.117 76.0859V96.1953C101.117 97.4766 101.273 98.3984 101.586 98.9609C101.898 99.5078 102.414 99.7812 103.133 99.7812ZM119.797 107L115.367 65.75H123.43L125.703 91.7891L128.023 65.75H135.711L137.914 91.7891L140.117 65.75H148.273L143.773 107H133.883L131.82 87.1484L129.852 107H119.797ZM150.734 107V65.75H162.078C165.047 65.75 167.281 66.5781 168.781 68.2344C170.281 69.875 171.031 72.2812 171.031 75.4531V94.7656C171.031 98.6719 170.344 101.688 168.969 103.812C167.609 105.938 165.219 107 161.797 107H150.734ZM159.031 99.7109H160.461C161.977 99.7109 162.734 98.9766 162.734 97.5078V76.2266C162.734 74.8516 162.547 73.9688 162.172 73.5781C161.812 73.1719 161.07 72.9688 159.945 72.9688H159.031V99.7109ZM184.25 107.375C180.953 107.375 178.43 106.383 176.68 104.398C174.945 102.398 174.078 99.5156 174.078 95.75V76.1562C174.078 72.625 174.938 69.9453 176.656 68.1172C178.391 66.2891 180.922 65.375 184.25 65.375C187.578 65.375 190.102 66.2891 191.82 68.1172C193.555 69.9453 194.422 72.625 194.422 76.1562V95.75C194.422 99.5156 193.547 102.398 191.797 104.398C190.062 106.383 187.547 107.375 184.25 107.375ZM184.32 99.7812C185.57 99.7812 186.195 98.5703 186.195 96.1484V76.0156C186.195 73.9844 185.586 72.9688 184.367 72.9688C182.992 72.9688 182.305 74.0078 182.305 76.0859V96.1953C182.305 97.4766 182.461 98.3984 182.773 98.9609C183.086 99.5078 183.602 99.7812 184.32 99.7812ZM200.984 107L196.555 65.75H204.617L206.891 91.7891L209.211 65.75H216.898L219.102 91.7891L221.305 65.75H229.461L224.961 107H215.07L213.008 87.1484L211.039 107H200.984ZM231.922 107V65.75H240.406L244.203 85.5078V65.75H252.172V107H244.109L239.984 86.375V107H231.922Z" fill="#525252"/>
</svg>
